<?xml version="1.0" encoding="UTF-8"?>
<svg version="1.1" xmlns="http://www.w3.org/2000/svg" width="512" height="512">
<path d="M0 0 C0.86625 0.78375 1.7325 1.5675 2.625 2.375 C-0.1004389 5.56794119 -3.62145853 7.33226687 -7.25 9.3125 C-10.79242688 11.24778374 -13.99457481 13.04805487 -17.0703125 15.69140625 C-19.375 17.375 -19.375 17.375 -21.30078125 17.37890625 C-24.23936307 15.95665478 -26.87699169 14.15281716 -29.5625 12.3125 C-60.70908234 -8.28917088 -101.20147207 -15.58202694 -137.77587891 -8.13623047 C-159.91596693 -3.1603802 -179.91906528 5.84361979 -197.375 20.375 C-198.23609375 21.07109375 -199.0971875 21.7671875 -199.984375 22.484375 C-212.31461964 32.92974148 -221.10733738 46.08403218 -228.375 60.375 C-228.85453125 61.30570312 -229.3340625 62.23640625 -229.828125 63.1953125 C-239.33148945 82.86366803 -246.58899142 107.79158129 -239.6875 129.25 C-236.35533033 137.51426197 -231.00489926 142.85245599 -222.85546875 146.50390625 C-211.87615599 150.72219643 -200.60023023 151.09256665 -189.6796875 146.5234375 C-186.68202797 145.02968852 -184.07796263 143.35277754 -181.375 141.375 C-180.6325 141.045 -179.89 140.715 -179.125 140.375 C-176.80094114 139.04696636 -176.39886077 137.83226584 -175.375 135.375 C-174.900625 134.58738281 -174.42625 133.79976562 -173.9375 132.98828125 C-171.73425856 127.89328542 -171.19182463 122.78478967 -170.4375 117.3125 C-167.71052019 99.15916503 -163.3886123 84.1946274 -149.375 71.375 C-133.59177518 59.77262941 -115.17635991 55.05724164 -95.7265625 57.91015625 C-82.64196768 60.50720707 -72.87889974 65.37553638 -62.375 73.375 C-61.74851562 73.83003906 -61.12203125 74.28507812 -60.4765625 74.75390625 C-58.68635879 77.38842589 -59.34827284 79.64555752 -59.6875 82.75 C-61.60507785 104.06848629 -61.3851526 127.09722431 -50.71875 146.3671875 C-47.75495465 153.00126429 -49.8030399 158.71915323 -52.25 165.125 C-52.56171143 165.94846924 -52.87342285 166.77193848 -53.19458008 167.62036133 C-68.03785298 205.60687577 -97.03777883 235.96044192 -134.375 252.375 C-159.99906618 263.14097518 -159.99906618 263.14097518 -170.375 259.25 C-173.95927796 255.88973941 -175.20781523 252.71247819 -175.8125 247.875 C-175.26080556 243.46144447 -174.38617206 241.67295036 -171.375 238.375 C-166.11032889 234.86870811 -160.31014913 232.99447999 -154.3125 231.125 C-123.04036678 221.18672084 -96.21645768 195.97641096 -81.09326172 167.21948242 C-72.19394542 149.29278536 -66.29434575 126.49273367 -71.5 106.625 C-75.01398866 97.27086118 -82.30320358 90.42023995 -91.2421875 86.22265625 C-101.40854711 82.18217999 -112.28927921 82.2431007 -122.47265625 86.1875 C-130.42523381 89.86499251 -136.70342251 95.32354857 -140.375 103.375 C-141.72749425 107.76671983 -142.25766878 112.2240994 -142.72265625 116.78515625 C-144.74036142 135.41464767 -151.80808974 151.03504544 -166.375 163.375 C-181.09483483 174.74725949 -199.46568966 178.25809945 -217.74609375 175.94921875 C-234.03661464 172.69909035 -247.70061147 164.09261827 -257.30078125 150.60546875 C-271.79423796 128.032797 -269.71071332 103.63751332 -264.6015625 78.58203125 C-260.66389518 62.01854075 -253.4212304 46.10716899 -243.375 32.375 C-242.76084229 31.52397705 -242.76084229 31.52397705 -242.13427734 30.65576172 C-232.63791833 17.6349808 -221.37091166 5.93720925 -208.375 -3.625 C-207.62476563 -4.1921875 -206.87453125 -4.759375 -206.1015625 -5.34375 C-145.46572775 -49.66230032 -57.71484541 -48.97713973 0 0 Z " fill="#E15315" transform="translate(327.375,190.625)"/>
<path d="M0 0 C1.07121094 0.8971875 1.07121094 0.8971875 2.1640625 1.8125 C2.85757813 2.34875 3.55109375 2.885 4.265625 3.4375 C23.43816955 19.05440902 35.47445694 43.44304356 38.1640625 67.8125 C39.74627372 93.4581622 31.86130575 118.62757792 14.79101562 138.1184082 C1.7864267 152.24546734 -12.58309434 161.88637072 -30.8359375 167.8125 C-31.88910156 168.15667969 -32.94226563 168.50085938 -34.02734375 168.85546875 C-54.93601258 174.4293692 -77.81675162 171.75761604 -97.28515625 162.86328125 C-99.80677789 161.82451215 -102.15103403 161.25272742 -104.8359375 160.8125 C-105.84178838 161.91370678 -106.81420822 163.04545291 -107.7734375 164.1875 C-108.31871094 164.81398438 -108.86398437 165.44046875 -109.42578125 166.0859375 C-110.91107818 168.95778586 -111.01608242 170.44756323 -111.16015625 173.6171875 C-111.59512156 179.4220751 -113.88008407 182.35420122 -117.7109375 186.5625 C-118.9074547 187.95208859 -120.10274748 189.34273233 -121.296875 190.734375 C-121.8959668 191.41951172 -122.49505859 192.10464844 -123.11230469 192.81054688 C-125.62639494 195.73059504 -127.98194324 198.76311684 -130.3359375 201.8125 C-134.8405899 207.58773789 -139.43809913 213.28373963 -144.0703125 218.95703125 C-144.57433594 219.57449219 -145.07835937 220.19195312 -145.59765625 220.828125 C-146.12407715 221.45090332 -146.65049805 222.07368164 -147.19287109 222.71533203 C-148.92784207 224.84740412 -148.92784207 224.84740412 -150.48291016 227.49951172 C-153.26200577 231.73450259 -155.12166821 234.40623602 -160.19018555 235.60742188 C-164.11839116 235.79664719 -167.91161619 235.68733436 -171.8359375 235.4375 C-173.19645006 235.38725472 -174.55714201 235.34164201 -175.91796875 235.30078125 C-179.22857987 235.18338369 -182.52991731 235.01944464 -185.8359375 234.8125 C-183.3547096 230.25514262 -180.81825301 226.37057619 -177.3984375 222.4375 C-173.26455235 217.60489712 -169.35880051 212.63472445 -165.5234375 207.5625 C-160.70007681 201.19227857 -155.7368743 194.96336671 -150.66333008 188.79125977 C-146.17526806 183.30084341 -141.90435831 177.66443198 -137.70483398 171.95092773 C-137.24020752 171.32130127 -136.77558105 170.6916748 -136.296875 170.04296875 C-135.89259277 169.49020264 -135.48831055 168.93743652 -135.07177734 168.36791992 C-132.71229254 165.39828783 -130.91681593 163.85293921 -127.4609375 162.125 C-123.31050545 159.83297036 -120.31778834 156.35565946 -118.8359375 151.8125 C-119.95556683 148.09267886 -122.61024551 145.96247707 -125.3984375 143.375 C-142.37871746 126.66385993 -152.70260635 103.12857016 -153.12939453 79.31152344 C-153.28163211 53.33744977 -146.40877802 30.53943065 -128.8359375 10.8125 C-128.11921875 9.9978125 -127.4025 9.183125 -126.6640625 8.34375 C-94.12838877 -26.32930376 -36.69741612 -30.08410085 0 0 Z M-112.828125 25.0234375 C-124.61083909 39.11823134 -132.94377779 58.61648642 -132.12109375 77.359375 C-129.46937702 100.17140388 -120.88950571 118.87646644 -103.1484375 134 C-87.85140929 145.64927533 -69.85357569 150.39569425 -50.8359375 148.8125 C-31.25199618 146.11841283 -13.545482 136.85391493 -1.2734375 121.25 C11.5611216 103.41438856 16.35623457 84.64939247 13.5390625 62.875 C9.65926126 42.96760607 -1.04026595 25.82898643 -17.81665039 14.17114258 C-25.03939579 9.3901974 -32.49108069 6.21404283 -40.8359375 3.8125 C-41.68542969 3.56757813 -42.53492188 3.32265625 -43.41015625 3.0703125 C-67.91342637 -2.84287335 -96.04690092 6.39956921 -112.828125 25.0234375 Z " fill="#252525" transform="translate(430.8359375,217.1875)"/>
<path d="M0 0 C3.54261625 3.13335312 6.98822191 6.35964579 10.41015625 9.62402344 C11.15136719 10.32398438 11.89257812 11.02394531 12.65625 11.74511719 C17.6929903 16.62476617 22.38801951 21.86894481 26.41015625 27.62402344 C26.41015625 28.28402344 26.41015625 28.94402344 26.41015625 29.62402344 C21.89387911 29.8487234 17.38093736 30.01079798 12.86035156 30.1184082 C11.32754788 30.16331079 9.79512178 30.22446373 8.26367188 30.30297852 C-4.42301972 30.93648498 -4.42301972 30.93648498 -9.66967773 27.75854492 C-12.16010929 25.50092527 -14.37539069 23.1495825 -16.58984375 20.62402344 C-24.54023849 13.65644683 -33.43612082 7.86267604 -42.58984375 2.62402344 C-43.19715332 2.26985352 -43.80446289 1.91568359 -44.43017578 1.55078125 C-63.48402357 -9.46631982 -84.01100995 -16.33785867 -105.58984375 -20.37597656 C-107.39195312 -20.72595703 -107.39195312 -20.72595703 -109.23046875 -21.08300781 C-158.05218971 -29.27892474 -211.00145891 -17.59491268 -251.78735352 10.33666992 C-266.01356733 20.4973652 -278.01341701 31.88758802 -287.98730469 46.27880859 C-291.50620632 51.34853892 -294.51121791 55.59781482 -300.58984375 57.62402344 C-305.82488211 58.01912067 -309.18913099 57.55783194 -313.58984375 54.62402344 C-316.0651594 51.69272858 -317.39925435 49.57697046 -318.15234375 45.81152344 C-314.16883841 23.23832649 -284.44171687 0.9115089 -267.15234375 -11.24316406 C-191.04632531 -63.89054704 -83.87384515 -62.77414004 0 0 Z " fill="#E15315" transform="translate(360.58984375,157.3759765625)"/>
<path d="M0 0 C1.02270996 0.39469482 2.04541992 0.78938965 3.09912109 1.19604492 C12.55097836 4.9984897 23.15026052 9.48802105 27.9375 19.0625 C28.50581635 23.18279354 28.67396675 25.66083747 26.7265625 29.3671875 C22.67151202 34.71680809 22.67151202 34.71680809 18.87890625 35.47290039 C11.16504404 35.96739858 5.41821659 32.92359125 -1.3125 29.5 C-52.93143843 4.52935685 -112.99890187 1.39789669 -167.21801758 19.75488281 C-175.2784371 22.61268611 -183.05694394 26.02469778 -190.75854492 29.73706055 C-198.58011527 33.48522345 -206.35473141 36.66653746 -215.0625 34.0625 C-218.30294458 31.49714804 -219.75810167 29.975695 -221.0625 26.0625 C-221.61064486 20.25216453 -220.57277743 17.65516281 -217.0625 13.0625 C-162.61581847 -34.10571889 -61.05585816 -23.88337613 0 0 Z " fill="#E15315" transform="translate(316.0625,78.9375)"/>
<path d="M0 0 C-0.62218575 3.57756806 -2.10346743 5.78968103 -4.25 8.6875 C-7.55955502 13.27993409 -10.37412563 17.99026733 -13 23 C-13.47566406 22.731875 -13.95132813 22.46375 -14.44140625 22.1875 C-15.9757456 21.32849602 -17.51402289 20.47651327 -19.0546875 19.62890625 C-21.19445483 18.44550708 -23.32331535 17.24231944 -25.4453125 16.02734375 C-47.23960445 3.73934932 -71.76079279 0.80211745 -95.92016602 7.52172852 C-116.83592403 13.77645901 -134.49160952 26.34587898 -145.20068359 45.63769531 C-151.45283742 57.28135734 -154.55169035 68.39542021 -156.51953125 81.4453125 C-156.67808594 82.49460937 -156.83664063 83.54390625 -157 84.625 C-157.12375 85.54539062 -157.2475 86.46578125 -157.375 87.4140625 C-158.33799608 91.39845878 -160.06325094 94.17345671 -163.125 96.875 C-167.27844596 98.50026146 -170.72873149 98.14727358 -175 97 C-178.55971617 94.80357938 -180.52537989 92.88530343 -182 89 C-184.44744774 64.8604365 -174.94970621 37.95225759 -159.984375 19.10546875 C-141.04315905 -3.81633321 -114.29174264 -18.63493705 -84.60058594 -21.78833008 C-54.62972801 -24.22775308 -24.19079319 -18.88061907 0 0 Z " fill="#E15315" transform="translate(290,223)"/>
<path d="M0 0 C3.97857658 1.94869057 4.80503693 3.61679673 6.8125 7.5625 C12.16019796 24.37394129 3.52305852 46.02651003 -4 61.09765625 C-16.24729417 84.51405923 -36.87857575 102.54085375 -62 111 C-82.41282709 116.99030627 -109.90249156 122.4247022 -130.0390625 113.05078125 C-132.21647342 111.74536665 -133.83070632 110.20609665 -135.4375 108.25 C-136.32912875 104.68348498 -136.03145818 101.47614803 -135 98 C-132.02433665 93.4939955 -129.14166101 90.74816474 -124 89 C-122.41290454 89.2270339 -120.82643381 89.45962894 -119.24414062 89.71801758 C-99.58568987 92.18815581 -78.59136008 90.57098314 -61 81 C-60.02804688 80.49726563 -59.05609375 79.99453125 -58.0546875 79.4765625 C-39.53811982 69.38953202 -27.42981331 52.85100355 -21.25 32.8125 C-19.7983051 27.09012125 -19.27401285 21.24330334 -18.82128906 15.3684082 C-18.33213061 9.80696863 -16.97639737 5.76578685 -13.6796875 1.15234375 C-9.83764574 -1.48347559 -4.42300537 -0.52070564 0 0 Z " fill="#E15315" transform="translate(226,295)"/>
<path d="M0 0 C5.29545668 -0.29195484 10.18339422 0.7320998 15.3046875 1.94921875 C15.99046875 2.10608154 16.67625 2.26294434 17.3828125 2.42456055 C23.31441561 3.93425201 26.66726153 6.34931746 30.3046875 11.19921875 C32.81505592 15.50270748 33.2451434 18.99037442 33.3671875 23.94921875 C33.42326172 25.42648437 33.42326172 25.42648437 33.48046875 26.93359375 C32.2064631 36.70486646 25.29918509 42.27551961 18.4296875 48.66796875 C11.16888542 55.6208923 5.94792229 62.80422158 4.1796875 72.82421875 C3.95539063 74.03335938 3.73109375 75.2425 3.5 76.48828125 C3.35304688 77.38289063 3.20609375 78.2775 3.0546875 79.19921875 C0.0846875 79.19921875 -2.8853125 79.19921875 -5.9453125 79.19921875 C-6.89962047 64.48697084 -2.38131996 54.14839557 5.16918945 41.90991211 C9.13894293 35.42291993 11.34468668 29.74156058 11.3046875 22.01171875 C11.30984375 21.00753906 11.315 20.00335938 11.3203125 18.96875 C11.04744276 16.12368171 10.68839625 14.53087269 9.0546875 12.19921875 C6.20580133 10.28786412 3.8855477 9.92625185 0.4921875 9.94921875 C-0.65443359 9.94148437 -0.65443359 9.94148437 -1.82421875 9.93359375 C-4.24514012 10.07626265 -4.24514012 10.07626265 -6.9453125 12.19921875 C-7.90811171 15.32557055 -8.63600192 18.41874678 -9.31835938 21.61328125 C-10.32769757 25.90402439 -11.32976134 28.57630072 -14.9453125 31.19921875 C-18.02552685 31.998201 -20.83957563 31.85801142 -23.9453125 31.19921875 C-26.70100697 29.0176273 -28.38119997 27.32744381 -29.9453125 24.19921875 C-30.54714439 18.38151051 -29.92110849 14.85262316 -26.5625 10.0234375 C-19.64146216 2.21637307 -9.84785283 1.00851505 0 0 Z " fill="#252525" transform="translate(370.9453125,237.80078125)"/>
<path d="M0 0 C2.9468411 1.56746867 4.56246916 2.62408064 5.59375 5.8671875 C6.44311839 10.98270169 5.69006571 14.3710089 2.875 18.75 C-0.18039626 20.78693084 -3.41545449 21.10183368 -7 21 C-10.88728274 19.75313572 -12.52983157 18.61709607 -15 15.375 C-16.33082994 10.88344895 -15.76150019 7.32143739 -14 3 C-10.15260287 -1.69640375 -5.55164381 -1.36356164 0 0 Z " fill="#252525" transform="translate(374,326)"/>
</svg>
