<?xml version="1.0" encoding="UTF-8"?>
<svg version="1.1" xmlns="http://www.w3.org/2000/svg" width="240" height="214">
<path d="M0 0 C0.66902344 0.62132813 1.33804688 1.24265625 2.02734375 1.8828125 C2.02734375 2.5428125 2.02734375 3.2028125 2.02734375 3.8828125 C0.258189 4.86500877 -1.51304194 5.84346609 -3.28515625 6.8203125 C-4.27128906 7.36558594 -5.25742188 7.91085938 -6.2734375 8.47265625 C-8.97265625 9.8828125 -8.97265625 9.8828125 -11.97265625 10.8828125 C-14.07421875 9.66015625 -14.07421875 9.66015625 -16.59765625 7.8203125 C-33.99251257 -3.68422211 -55.80800385 -6.51370566 -76.02172852 -2.52539062 C-92.38748361 1.01911174 -108.16654238 9.4062585 -117.97265625 23.3203125 C-118.40199463 23.92939453 -118.83133301 24.53847656 -119.27368164 25.16601562 C-128.07056815 38.05906112 -133.36530447 53.40794805 -131.53515625 69.09765625 C-130.61162855 73.67040107 -129.05182802 76.25941976 -125.38671875 79.12109375 C-119.40073396 82.79603378 -112.78451653 82.65346509 -105.97265625 81.8828125 C-102.41625695 80.57077517 -102.41625695 80.57077517 -99.97265625 78.8828125 C-99.31265625 78.8828125 -98.65265625 78.8828125 -97.97265625 78.8828125 C-95.10949308 73.36099781 -93.58744771 68.20544274 -92.59765625 62.0703125 C-90.72970843 51.59751712 -87.56789152 44.51301865 -78.97265625 37.8828125 C-69.20381095 31.87904299 -58.542752 31.34473402 -47.53125 33.58203125 C-41.49486034 35.37254984 -35.8162009 37.67136434 -31.97265625 42.8828125 C-31.20231934 46.28695389 -31.45344473 49.48428702 -31.72265625 52.9453125 C-32.08946989 62.15305105 -31.76894204 70.64091612 -27.9296875 79.2109375 C-25.7041065 84.26164377 -25.98666048 87.03426169 -27.91015625 92.2578125 C-28.89222257 94.48365673 -29.91299489 96.69284569 -30.97265625 98.8828125 C-31.42253906 99.84832031 -31.87242188 100.81382812 -32.3359375 101.80859375 C-35.87107377 108.84899189 -40.49962776 114.26808747 -45.97265625 119.8828125 C-46.76929687 120.74132812 -47.5659375 121.59984375 -48.38671875 122.484375 C-58.2466282 132.84510524 -73.82141965 143.95776188 -88.78515625 144.5703125 C-91.79595394 144.50294525 -92.61584981 144.2530983 -94.73046875 142.05859375 C-95.97265625 139.8828125 -95.97265625 139.8828125 -96.03515625 136.3828125 C-94.96229067 132.84866707 -94.26984065 131.63714752 -91.09375 129.83203125 C-88.36871132 128.6125388 -85.58738232 127.59990567 -82.78515625 126.5703125 C-64.86116865 119.85644654 -51.14917034 106.6898722 -43.0390625 89.42578125 C-38.89518869 79.54423601 -36.58506887 67.73762895 -39.78125 57.22265625 C-42.23472018 52.68076509 -45.6551672 50.29315784 -50.4453125 48.5078125 C-57.4737407 46.76971588 -63.74992086 47.15253155 -70.21875 50.421875 C-75.04521045 54.44213382 -76.51586111 59.11507465 -77.47265625 65.1328125 C-79.73205623 77.62218858 -83.40486867 85.52897003 -93.83203125 93.26171875 C-101.86831276 98.25674693 -111.54004213 99.1508242 -120.6875 97.34765625 C-129.61100141 94.89201601 -137.15505964 89.78058559 -142.234375 81.93359375 C-149.31290624 68.5396443 -147.77656154 54.10544634 -143.97265625 39.8828125 C-139.7193781 26.99833986 -132.43104186 16.49727708 -122.97265625 6.8828125 C-122.21210937 6.109375 -121.4515625 5.3359375 -120.66796875 4.5390625 C-114.1471879 -1.70378342 -106.917885 -5.99073612 -98.97265625 -10.1171875 C-98.06773438 -10.601875 -97.1628125 -11.0865625 -96.23046875 -11.5859375 C-65.08325811 -27.11220664 -26.89376076 -20.72083044 0 0 Z " fill="#E05214" transform="translate(154.97265625,70.1171875)"/>
<path d="M0 0 C11.93958677 8.83988636 20.28477669 20.87667735 23.0390625 35.578125 C24.97796844 51.27946133 21.3114575 64.32244313 11.75 76.9296875 C2.37587975 88.0910232 -8.99418128 94.60045748 -23.48828125 96.58984375 C-34.85450559 97.38417963 -45.57661118 95.323205 -55.5625 89.8046875 C-57.00462469 92.51262219 -57.9621104 95.07436639 -58.76953125 98.02734375 C-60.51949057 103.38460807 -63.57149381 107.05260241 -67.25 111.2421875 C-68.50831942 112.7196205 -69.76613415 114.19748348 -71.0234375 115.67578125 C-71.63026367 116.3807373 -72.23708984 117.08569336 -72.86230469 117.81201172 C-75.09583549 120.4297714 -77.2396128 123.10633458 -79.375 125.8046875 C-82.47306911 129.71525661 -82.47306911 129.71525661 -83.5625 130.8046875 C-86.25904854 130.87788371 -88.92941458 130.89711287 -91.625 130.8671875 C-92.38361328 130.86267578 -93.14222656 130.85816406 -93.92382812 130.85351562 C-95.80341871 130.8416943 -97.68296899 130.82375828 -99.5625 130.8046875 C-95.48623308 124.10397475 -90.65420725 118.09302611 -85.67529297 112.05639648 C-82.86267487 108.64416441 -80.08855757 105.21732309 -77.4140625 101.6953125 C-76.92188232 101.05037842 -76.42970215 100.40544434 -75.92260742 99.7409668 C-74.99524086 98.51949119 -74.07570505 97.29201832 -73.1652832 96.05786133 C-70.06728279 91.99686369 -70.06728279 91.99686369 -67.25390625 90.92578125 C-66.41666016 90.86583984 -66.41666016 90.86583984 -65.5625 90.8046875 C-64.9025 88.4946875 -64.2425 86.1846875 -63.5625 83.8046875 C-64.07039063 83.34320313 -64.57828125 82.88171875 -65.1015625 82.40625 C-75.21831119 72.81996753 -80.87701004 61.57478929 -81.765625 47.61328125 C-81.98480491 31.85059278 -78.53843191 19.04903203 -67.59985352 7.30737305 C-62.74764013 2.35954129 -57.93727056 -1.48763404 -51.5625 -4.1953125 C-50.31339844 -4.77925781 -50.31339844 -4.77925781 -49.0390625 -5.375 C-32.98488178 -11.89560562 -14.34604863 -9.24216594 0 0 Z M-62 19.6171875 C-68.00520659 28.52086086 -70.57872357 39.20255352 -69.15625 49.84375 C-66.78449944 60.77074366 -62.02524356 70.49094346 -52.5625 76.8046875 C-42.25286197 82.71697667 -33.14958348 85.58941388 -21.2734375 83.12109375 C-9.93883437 79.92245282 -1.32228646 74.64511353 4.84375 64.48828125 C10.60981331 53.77748341 11.83920873 43.26203503 8.4140625 31.578125 C6.91070598 27.30859247 4.93118045 23.57387117 2.4375 19.8046875 C2.03015625 19.18851563 1.6228125 18.57234375 1.203125 17.9375 C-4.27803729 10.6830205 -13.40892077 5.44835874 -22.3671875 4.01953125 C-23.09164062 3.94863281 -23.81609375 3.87773438 -24.5625 3.8046875 C-25.32820313 3.72347656 -26.09390625 3.64226562 -26.8828125 3.55859375 C-40.54749125 2.83361883 -53.38012235 9.12248646 -62 19.6171875 Z " fill="#FFFFFF" transform="translate(209.5625,83.1953125)"/>
<path d="M0 0 C6.24603975 5.18007246 11.2614787 10.43146379 16 17 C-1.46168166 18.30931139 -1.46168166 18.30931139 -6.83984375 15.53515625 C-8.875 13.5625 -8.875 13.5625 -10.83984375 11.3515625 C-22.56458007 -1.41207451 -42.45460369 -7.3012528 -59 -10 C-60.08667969 -10.18175781 -61.17335938 -10.36351562 -62.29296875 -10.55078125 C-91.19922958 -14.05364742 -119.67674875 -6.41524321 -143 11 C-148.59874968 15.73066473 -153.13501753 21.18198014 -157.4921875 27.0546875 C-159.81619628 30.05302008 -161.21384337 31.74364458 -164.875 32.9375 C-168 33 -168 33 -170.875 31.4375 C-173 29 -173 29 -173.6875 26.3125 C-170.87634744 12.76785584 -154.45407106 -0.19323868 -143.5 -7.5625 C-132.32909312 -14.75064594 -119.83269475 -19.69623115 -107 -23 C-105.90816406 -23.2990625 -104.81632812 -23.598125 -103.69140625 -23.90625 C-67.335232 -32.35935402 -28.82627203 -23.24575208 0 0 Z " fill="#E05214" transform="translate(173,52)"/>
<path d="M0 0 C1.5 2 1.5 2 2.0625 4.4375 C1.20070894 8.36343705 -0.18203085 9.76544935 -3.5 12 C-8.88455649 12.22389008 -13.77472031 9.45563425 -18.5 7.1875 C-46.28670834 -6.05814535 -78.00703363 -6.07873464 -106.8515625 3.6640625 C-111.13222267 5.23149909 -115.26095492 6.99917574 -119.36328125 8.984375 C-123.73846686 11.0639879 -127.71653498 11.71751975 -132.5 11 C-134.88110562 8.99094214 -135.34192184 7.60069699 -136.125 4.625 C-135.0916402 0.28488883 -132.1206692 -1.6094706 -128.5 -4 C-92.81460813 -23.68245018 -33.2340359 -26.58722872 0 0 Z " fill="#E15314" transform="translate(163.5,18)"/>
<path d="M0 0 C1.609375 1.86328125 1.609375 1.86328125 2 4 C0.6640625 6.796875 0.6640625 6.796875 -1.375 9.75 C-2.04273438 10.73484375 -2.71046875 11.7196875 -3.3984375 12.734375 C-4.19121094 13.85585937 -4.19121094 13.85585937 -5 15 C-6.0621875 14.44570312 -7.124375 13.89140625 -8.21875 13.3203125 C-9.64561071 12.58810766 -11.07270673 11.85636127 -12.5 11.125 C-13.54414063 10.57779297 -13.54414063 10.57779297 -14.609375 10.01953125 C-25.52442752 4.46093969 -37.34225489 3.36391683 -49.32421875 6.109375 C-62.76583037 10.58337128 -72.32467041 17.41084686 -79 30 C-81.35027091 35.55711647 -83.0471832 40.90260183 -83.4375 46.9375 C-83.7130347 50.37542157 -84.06243771 51.08919673 -86.1875 54.125 C-89 56 -89 56 -92.125 56.0625 C-95.45139318 54.83318078 -96.21142528 53.99818883 -98 51 C-100.35190594 38.5152993 -94.4872653 25.16110546 -87.9921875 14.77734375 C-78.71301697 1.84108837 -64.94504362 -7.02037573 -49.18847656 -9.72314453 C-31.67783354 -11.93834636 -15.00850844 -9.61288764 0 0 Z " fill="#E05214" transform="translate(133,87)"/>
<path d="M0 0 C3.02062907 3.03461347 3.48163373 5.4770629 3.5625 9.6875 C3.11832707 25.51782309 -4.34268957 38.49703384 -15.41015625 49.3671875 C-23.7562142 56.55972524 -34.0749122 61.43927317 -45 63 C-46.08861328 63.16435547 -46.08861328 63.16435547 -47.19921875 63.33203125 C-56.1635143 64.50536836 -64.63162039 64.93169559 -73 61 C-75 59 -75 59 -75.4375 56.1875 C-75 53 -75 53 -73.12890625 50.3046875 C-68.59572438 46.96563968 -64.95478522 47.61346701 -59.5 47.9375 C-44.71685544 48.35486374 -34.19570191 45.33191778 -23.00390625 35.19140625 C-15.37689936 27.30196472 -12.64743384 17.48687928 -11.45703125 6.8125 C-11.01771601 4.10902159 -10.46364817 2.29925822 -9 0 C-5.8168485 -1.59157575 -3.38676935 -0.77242108 0 0 Z " fill="#E05314" transform="translate(101,129)"/>
<path d="M0 0 C2.75707871 2.27458994 3.80745695 3.80061723 4.375 7.3359375 C4.65277698 13.1171708 3.88904147 16.52760231 0 21 C-1.34969058 22.31710248 -2.70422427 23.62925284 -4.0625 24.9375 C-8.94423211 29.69219819 -10.97053277 34.20551631 -12 41 C-13.98 41 -15.96 41 -18 41 C-17.76044547 33.42646838 -15.96016389 27.90691768 -12.4375 21.25 C-8.46315112 14.0499435 -8.46315112 14.0499435 -8 6 C-9.06345052 4.01970318 -9.06345052 4.01970318 -11 3 C-12.66606372 2.95517317 -14.3340561 2.95092146 -16 3 C-16.27714844 3.71027344 -16.55429688 4.42054687 -16.83984375 5.15234375 C-17.20207031 6.07144531 -17.56429687 6.99054688 -17.9375 7.9375 C-18.29714844 8.85402344 -18.65679687 9.77054688 -19.02734375 10.71484375 C-20 13 -20 13 -21 14 C-24.4375 14.1875 -24.4375 14.1875 -28 14 C-30 12 -30 12 -30.375 8.6875 C-29.92917259 4.30353047 -29.25773556 2.931962 -26 0 C-18.02714641 -4.57428697 -7.97882279 -4.52255854 0 0 Z " fill="#FFFFFF" transform="translate(193,100)"/>
<path d="M0 0 C3.0625 0.25 3.0625 0.25 6.0625 2.25 C6.4359761 5.67353094 6.64123868 8.16060954 5 11.25 C1.83453476 12.88378851 -0.58770286 12.10267564 -3.9375 11.25 C-5.9375 8.25 -5.9375 8.25 -5.6875 5.1875 C-4.69187399 1.2879648 -4.06532003 0.34598468 0 0 Z " fill="#FFFFFF" transform="translate(177.9375,144.75)"/>
</svg>
